<svg xmlns="http://www.w3.org/2000/svg" viewBox="0 0 32 32" fill="none">
    <!-- White background circle for high-contrast badge look -->
    <circle cx="16" cy="16" r="11.5" fill="#ffffff" />
    
    <!-- B (Left loops - Forest Teal) -->
    <path d="M 10.5 8.5 c -1.5 0 -2.5 1.5 -2.5 4 c 0 5 2.5 9 3 10 M 11 8.5 c 2.5 0, 4 1.5, 4 3.5 c 0 2 -1.5 3 -4 3 c 3 0, 4.5 1.5, 4.5 4 c 0 2.5 -2 3.5 -5 3.5" stroke="#0f766e" stroke-width="2.1" stroke-linecap="round" stroke-linejoin="round" />
    
    <!-- W (Center - Rich Black) -->
    <path d="M 13.5 13 c 0.5 4, 1 7, 2.5 7 c 1.2 0, 1.8 -4, 2.3 -5 c 0.5 1, 1.1 5, 2.3 5 c 1.5 0, 2 -3, 2.5 -7" stroke="#111827" stroke-width="2.4" stroke-linecap="round" stroke-linejoin="round" />
    
    <!-- D (Right loop - Sky Blue) -->
    <path d="M 21.5 8.5 c -1 3 -1 10, 0 14 M 21.5 22.5 c 3.5 0, 5.5 -3, 5.5 -6.5 c 0 -3.5 -2 -7 -5.5 -7.5 c -1 -0.2 -1.8 0.5 -1.8 1.5 c 0 1, 1 1.5, 2 1" stroke="#0ea5e9" stroke-width="2.1" stroke-linecap="round" stroke-linejoin="round" />
</svg>