<svg xmlns="http://www.w3.org/2000/svg" viewBox="0 0 32 32" fill="none">
    <!-- White background circle for high-contrast badge look -->
    <circle cx="16" cy="16" r="11.5" fill="#ffffff" />
    
    <!-- B (Left - Forest Teal) -->
    <path d="M 9.5 9 v 12 M 9.5 9 c 2.5 0, 4 1, 4 3 c 0 1.5, -1.5 2.5, -4 2.5 c 2.5 0, 4.5 1, 4.5 3.5 c 0 2, -2 3, -4.5 3" stroke="#0f766e" stroke-width="2" stroke-linecap="round" stroke-linejoin="round" />
    
    <!-- B-to-W connection and W (Rich Black) -->
    <path d="M 9.5 20.5 c 2 0, 3.5 -1, 4.5 -3.5 l 1.5 6 l 1.5 -7 l 1.5 7 l 1.5 -7" stroke="#111827" stroke-width="2.2" stroke-linecap="round" stroke-linejoin="round" />
    
    <!-- W-to-D connection and D (Sky Blue) -->
    <path d="M 20 16.5 c 1 0, 1.5 1.5, 2 3.5 l 0.5 2.5 M 22.5 9.5 v 13 M 22.5 9.5 c 3.5 0, 5 -2.5, 5 -5.5 s -1.5 -6 -5 -6" stroke="#0ea5e9" stroke-width="2" stroke-linecap="round" stroke-linejoin="round" />
</svg>