<svg xmlns="http://www.w3.org/2000/svg" viewBox="0 0 32 32" fill="none">
    <!-- White background circle for high-contrast badge look -->
    <circle cx="16" cy="16" r="12" fill="#ffffff" />
    
    <!-- B (Left - Forest Teal) -->
    <path d="M 8 9v13 M 8 9c2.5 0, 4.5 1.5, 4.5 4s-2 3.5, -4.5 3.5 M 8 16.5c3 0, 5 1.5, 5 4.5c0 2-1.5 3-3.5 3c1.5 0, 2.5-0.5, 4-2" stroke="#0f766e" stroke-width="2" stroke-linecap="round" stroke-linejoin="round" />
    
    <!-- W (Center - Rich Black) -->
    <path d="M 13.5 22l2-8.5l2 7.5l2-7.5l2 8.5" stroke="#111827" stroke-width="2.2" stroke-linecap="round" stroke-linejoin="round" />
    
    <!-- D (Right - Sky Blue) -->
    <path d="M 21.5 22c1 0, 1.5-0.5, 2-2 M 23.5 9v13 M 23.5 9c3.5 0, 5.5 3, 5.5 6.5s-2 6.5,-5.5 6.5" stroke="#0ea5e9" stroke-width="2" stroke-linecap="round" stroke-linejoin="round" />
</svg>