<svg xmlns="http://www.w3.org/2000/svg" viewBox="0 0 32 32" fill="none">
    <!-- B (Left loops - Forest Teal) -->
    <path d="M16 6C11 6 7.5 9.5 7.5 15C7.5 15 11 15 16 15M16 15C11 15 7.5 15 7.5 15C7.5 20.5 11 24 16 24" stroke="#0f766e" stroke-width="2.2" stroke-linecap="round" />
    <path d="M16 6v3" stroke="#0f766e" stroke-width="2.2" stroke-linecap="round" />
    
    <!-- D (Right loop - Sky Blue) -->
    <path d="M16 6c5.5 0 9.5 4 9.5 9s-4 9-9.5 9" stroke="#0ea5e9" stroke-width="2.2" stroke-linecap="round" />
    <path d="M16 21v3" stroke="#0ea5e9" stroke-width="2.2" stroke-linecap="round" />
    
    <!-- Shared Vertical Stem -->
    <path d="M16 9v2.5" stroke="#0f766e" stroke-width="2.2" stroke-linecap="round" />
    <path d="M16 18.5v2.5" stroke="#0ea5e9" stroke-width="2.2" stroke-linecap="round" />
    
    <!-- W (Center - Rose/Accent) -->
    <path d="M11.5 13l2.25 5 2.25-4 2.25 4 2.25-5" stroke="#6366f1" stroke-width="2.5" stroke-linecap="round" stroke-linejoin="round" />
</svg>